<svg width="30" height="30" viewBox="0 0 30 30" fill="none" xmlns="http://www.w3.org/2000/svg">
<circle cx="15" cy="15" r="15" fill="#FF8A00"/>
<path d="M18.75 9.41664H20.7525C21.177 9.40955 21.5894 9.5499 21.9116 9.81105C22.2337 10.0722 22.4431 10.436 22.5 10.8333V15.7916C22.4431 16.189 22.2337 16.5527 21.9116 16.8139C21.5894 17.075 21.177 17.2154 20.7525 17.2083H18.75M13.5 18.625V21.4583C13.5 22.0219 13.7371 22.5624 14.159 22.9609C14.581 23.3594 15.1533 23.5833 15.75 23.5833L18.75 17.2083V9.41664H10.29C9.92828 9.41278 9.57724 9.53252 9.30159 9.7538C9.02595 9.97508 8.84427 10.283 8.79002 10.6208L7.75502 16.9958C7.72239 17.1988 7.73689 17.4062 7.79752 17.6034C7.85814 17.8006 7.96345 17.983 8.10613 18.138C8.24881 18.293 8.42546 18.4168 8.62384 18.5009C8.82222 18.5849 9.03759 18.6273 9.25502 18.625H13.5Z" stroke="white" stroke-width="2" stroke-linecap="round" stroke-linejoin="round"/>
</svg>
