<svg width="30" height="30" viewBox="0 0 30 30" fill="none" xmlns="http://www.w3.org/2000/svg">
<circle cx="15" cy="15" r="15" fill="#FF8A00"/>
<path d="M12.25 20.5834H10C9.60218 20.5834 9.22064 20.4341 8.93934 20.1684C8.65804 19.9027 8.5 19.5424 8.5 19.1667V14.2084C8.5 13.8326 8.65804 13.4723 8.93934 13.2066C9.22064 12.9409 9.60218 12.7917 10 12.7917H12.25M17.5 11.375V8.54169C17.5 7.9781 17.2629 7.4376 16.841 7.03909C16.419 6.64057 15.8467 6.41669 15.25 6.41669L12.25 12.7917V20.5834H20.71C21.0717 20.5872 21.4228 20.4675 21.6984 20.2462C21.9741 20.0249 22.1558 19.717 22.21 19.3792L23.245 13.0042C23.2776 12.8011 23.2631 12.5938 23.2025 12.3966C23.1419 12.1994 23.0366 12.017 22.8939 11.862C22.7512 11.707 22.5746 11.5832 22.3762 11.4991C22.1778 11.415 21.9624 11.3727 21.745 11.375H17.5Z" stroke="white" stroke-width="2" stroke-linecap="round" stroke-linejoin="round"/>
</svg>
